<?xml version="1.0" standalone="no"?><!DOCTYPE svg PUBLIC "-//W3C//DTD SVG 1.1//EN" "http://www.w3.org/Graphics/SVG/1.1/DTD/svg11.dtd"><svg t="1571131257090" class="icon" viewBox="0 0 1024 1024" version="1.1" xmlns="http://www.w3.org/2000/svg" p-id="2774" xmlns:xlink="http://www.w3.org/1999/xlink" width="200" height="200"><defs><style type="text/css"></style></defs><path d="M73.28 84.352L676.608 0.256a24.384 24.384 0 0 1 19.136 5.504c5.248 4.48 8.32 10.88 8.32 17.664v977.152a23.232 23.232 0 0 1-8.32 17.664c-5.248 4.48-12.16 6.464-19.072 5.504L73.216 939.648A47.232 47.232 0 0 1 32 893.248V130.752c0-23.296 17.6-43.072 41.216-46.4h0.064z m678.72 5.76h192c26.496 0 48 20.992 48 46.912v749.952a47.424 47.424 0 0 1-48 46.912h-192V90.112zM425.6 512l134.4-187.52h-115.2l-76.8 107.2-76.8-107.2h-115.2L310.4 512l-134.4 187.52h115.2l76.8-107.2 76.8 107.2h115.2L425.6 512z" fill="#2878FF" p-id="2775"></path></svg>